{
  "accessors": [
    {
      "bufferView": 2,
      "componentType": 5126,
      "count": 739,
      "max": [
        4.596782207489014,
        5.030814170837402,
        12.408166885375977
      ],
      "min": [
        -4.987323760986328,
        -4.659783840179443,
        -0.3891315758228302
      ],
      "type": "VEC3"
    },
    {
      "bufferView": 2,
      "byteOffset": 8868,
      "componentType": 5126,
      "count": 739,
      "max": [
        0.9997267723083496,
        0.9990475177764893,
        0.9593738317489624
      ],
      "min": [
        -0.9999875426292419,
        -0.9976643919944763,
        -0.9387441277503967
      ],
      "type": "VEC3"
    },
    {
      "bufferView": 1,
      "componentType": 5126,
      "count": 739,
      "max": [
        0.9999821186065674,
        4.3169026374816895
      ],
      "min": [
        -0.0008070546900853515,
        0.0005238963640294969
      ],
      "type": "VEC2"
    },
    {
      "bufferView": 1,
      "byteOffset": 5912,
      "componentType": 5126,
      "count": 739,
      "max": [
        0.9949161410331726,
        0.993704080581665
      ],
      "min": [
        0.0050839148461818695,
        0.0050839148461818695
      ],
      "type": "VEC2"
    },
    {
      "bufferView": 0,
      "componentType": 5125,
      "count": 1920,
      "type": "SCALAR"
    },
    {
      "bufferView": 2,
      "byteOffset": 17736,
      "componentType": 5126,
      "count": 1089,
      "max": [
        5.29746675491333,
        6.170987129211426,
        12.737541198730469
      ],
      "min": [
        -5.901458263397217,
        -5.431044578552246,
        2.4001643657684326
      ],
      "type": "VEC3"
    },
    {
      "bufferView": 2,
      "byteOffset": 30804,
      "componentType": 5126,
      "count": 1089,
      "max": [
        0.9995277523994446,
        0.9996504187583923,
        0.9983157515525818
      ],
      "min": [
        -0.999515950679779,
        -0.9973242282867432,
        -0.999833345413208
      ],
      "type": "VEC3"
    },
    {
      "bufferView": 1,
      "byteOffset": 11824,
      "componentType": 5126,
      "count": 1089,
      "max": [
        1.000100016593933,
        -0.0
      ],
      "min": [
        9.999999747378752e-05,
        -1.0
      ],
      "type": "VEC2"
    },
    {
      "bufferView": 1,
      "byteOffset": 20536,
      "componentType": 5126,
      "count": 1089,
      "max": [
        0.9944085478782654,
        0.9941737651824951
      ],
      "min": [
        0.008645149879157543,
        0.0050839148461818695
      ],
      "type": "VEC2"
    },
    {
      "bufferView": 0,
      "byteOffset": 7680,
      "componentType": 5125,
      "count": 1728,
      "type": "SCALAR"
    }
  ],
  "asset": {
    "extras": {
      "author": "JABAMI Production (https://sketchfab.com/JabamiProduction)",
      "license": "SKETCHFAB Standard (https://sketchfab.com/licenses)",
      "source": "https://sketchfab.com/3d-models/anime-nature-tree-01-177e81f556564fc9a9a64e9d55c30ae4",
      "title": "Anime Nature Tree 01"
    },
    "generator": "Sketchfab-16.21.0",
    "version": "2.0"
  },
  "bufferViews": [
    {
      "buffer": 0,
      "byteLength": 14592,
      "name": "floatBufferViews",
      "target": 34963
    },
    {
      "buffer": 0,
      "byteLength": 29248,
      "byteOffset": 14592,
      "byteStride": 8,
      "name": "floatBufferViews",
      "target": 34962
    },
    {
      "buffer": 0,
      "byteLength": 43872,
      "byteOffset": 43840,
      "byteStride": 12,
      "name": "floatBufferViews",
      "target": 34962
    }
  ],
  "buffers": [
    {
      "byteLength": 87712,
      "uri": "scene.bin"
    }
  ],
  "extensionsRequired": [
    "KHR_materials_pbrSpecularGlossiness"
  ],
  "extensionsUsed": [
    "KHR_materials_pbrSpecularGlossiness"
  ],
  "images": [
    {
      "uri": "textures/trunk_M_diffuse.png"
    },
    {
      "uri": "textures/Leaves_M_diffuse.png"
    }
  ],
  "materials": [
    {
      "doubleSided": true,
      "extensions": {
        "KHR_materials_pbrSpecularGlossiness": {
          "diffuseFactor": [
            1.0,
            1.0,
            1.0,
            1.0
          ],
          "diffuseTexture": {
            "index": 0
          },
          "glossinessFactor": 0.998289951297813,
          "specularFactor": [
            0.0,
            0.0,
            0.0
          ]
        }
      },
      "name": "trunk_M"
    },
    {
      "alphaMode": "BLEND",
      "doubleSided": true,
      "extensions": {
        "KHR_materials_pbrSpecularGlossiness": {
          "diffuseFactor": [
            0.03033756170154129,
            0.7158558931551351,
            0.0,
            1.0
          ],
          "diffuseTexture": {
            "index": 1
          },
          "glossinessFactor": 0.0,
          "specularFactor": [
            0.050351434008840575,
            0.050351434008840575,
            0.050351434008840575
          ]
        }
      },
      "name": "Leaves_M"
    }
  ],
  "meshes": [
    {
      "name": "Tree01_jbm_m_trunk_M_0",
      "primitives": [
        {
          "attributes": {
            "NORMAL": 1,
            "POSITION": 0,
            "TEXCOORD_0": 2,
            "TEXCOORD_1": 3
          },
          "indices": 4,
          "material": 0,
          "mode": 4
        }
      ]
    },
    {
      "name": "Tree01_jbm_m_Leaves_M_0",
      "primitives": [
        {
          "attributes": {
            "NORMAL": 6,
            "POSITION": 5,
            "TEXCOORD_0": 7,
            "TEXCOORD_1": 8
          },
          "indices": 9,
          "material": 1,
          "mode": 4
        }
      ]
    }
  ],
  "nodes": [
    {
      "children": [
        1
      ],
      "matrix": [
        1.0,
        0.0,
        0.0,
        0.0,
        0.0,
        2.220446049250313e-16,
        -1.0,
        0.0,
        0.0,
        1.0,
        2.220446049250313e-16,
        0.0,
        0.0,
        0.0,
        0.0,
        1.0
      ],
      "name": "Sketchfab_model"
    },
    {
      "children": [
        2
      ],
      "matrix": [
        0.009999999776482582,
        0.0,
        0.0,
        0.0,
        0.0,
        0.0,
        0.009999999776482582,
        0.0,
        0.0,
        -0.009999999776482582,
        0.0,
        0.0,
        0.0,
        0.0,
        0.0,
        1.0
      ],
      "name": "Tree_A_01_m.fbx"
    },
    {
      "children": [
        3
      ],
      "name": "RootNode"
    },
    {
      "children": [
        4,
        5
      ],
      "matrix": [
        100.0,
        0.0,
        0.0,
        0.0,
        0.0,
        -1.629206793918314e-05,
        -99.99999999999868,
        0.0,
        0.0,
        99.99999999999868,
        -1.629206793918314e-05,
        0.0,
        0.0,
        0.0,
        0.0,
        1.0
      ],
      "name": "Tree01_jbm_m"
    },
    {
      "mesh": 0,
      "name": "Tree01_jbm_m_trunk_M_0"
    },
    {
      "mesh": 1,
      "name": "Tree01_jbm_m_Leaves_M_0"
    }
  ],
  "samplers": [
    {
      "magFilter": 9729,
      "minFilter": 9987,
      "wrapS": 10497,
      "wrapT": 10497
    }
  ],
  "scene": 0,
  "scenes": [
    {
      "name": "Sketchfab_Scene",
      "nodes": [
        0
      ]
    }
  ],
  "textures": [
    {
      "sampler": 0,
      "source": 0
    },
    {
      "sampler": 0,
      "source": 1
    }
  ]
}
