{
  "accessors": [
    {
      "bufferView": 2,
      "componentType": 5126,
      "count": 4224,
      "max": [
        1.9073150157928467,
        10.1838960647583,
        4.7192769050598145
      ],
      "min": [
        -1.9073150157928467,
        -10.171281814575195,
        0.12466999888420105
      ],
      "type": "VEC3"
    },
    {
      "bufferView": 2,
      "byteOffset": 50688,
      "componentType": 5126,
      "count": 4224,
      "max": [
        1.0,
        1.0,
        1.0
      ],
      "min": [
        -1.0,
        -1.0,
        -1.0
      ],
      "type": "VEC3"
    },
    {
      "bufferView": 1,
      "componentType": 5126,
      "count": 4224,
      "max": [
        0.9980810284614563,
        0.9924129843711853
      ],
      "min": [
        0.00890399981290102,
        0.010931000113487244
      ],
      "type": "VEC2"
    },
    {
      "bufferView": 0,
      "componentType": 5125,
      "count": 9630,
      "type": "SCALAR"
    },
    {
      "bufferView": 2,
      "byteOffset": 101376,
      "componentType": 5126,
      "count": 1442,
      "max": [
        1.1597249507904053,
        2.5850279331207275,
        0.27402499318122864
      ],
      "min": [
        -1.1597249507904053,
        -2.5850300788879395,
        -0.9505190253257751
      ],
      "type": "VEC3"
    },
    {
      "bufferView": 2,
      "byteOffset": 118680,
      "componentType": 5126,
      "count": 1442,
      "max": [
        1.0,
        1.0,
        1.0
      ],
      "min": [
        -1.0,
        -0.9945180416107178,
        -1.0
      ],
      "type": "VEC3"
    },
    {
      "bufferView": 1,
      "byteOffset": 33792,
      "componentType": 5126,
      "count": 1442,
      "max": [
        0.7532089948654175,
        0.356797993183136
      ],
      "min": [
        0.004801999777555466,
        0.006647000089287758
      ],
      "type": "VEC2"
    },
    {
      "bufferView": 0,
      "byteOffset": 38520,
      "componentType": 5125,
      "count": 5046,
      "type": "SCALAR"
    },
    {
      "bufferView": 2,
      "byteOffset": 135984,
      "componentType": 5126,
      "count": 1442,
      "max": [
        1.1597249507904053,
        2.5850279331207275,
        0.27402499318122864
      ],
      "min": [
        -1.1597249507904053,
        -2.5850300788879395,
        -0.9505190253257751
      ],
      "type": "VEC3"
    },
    {
      "bufferView": 2,
      "byteOffset": 153288,
      "componentType": 5126,
      "count": 1442,
      "max": [
        1.0,
        1.0,
        1.0
      ],
      "min": [
        -1.0,
        -0.9945180416107178,
        -1.0
      ],
      "type": "VEC3"
    },
    {
      "bufferView": 1,
      "byteOffset": 45328,
      "componentType": 5126,
      "count": 1442,
      "max": [
        0.7532089948654175,
        0.356797993183136
      ],
      "min": [
        0.004801999777555466,
        0.006647000089287758
      ],
      "type": "VEC2"
    },
    {
      "bufferView": 0,
      "byteOffset": 58704,
      "componentType": 5125,
      "count": 5046,
      "type": "SCALAR"
    }
  ],
  "asset": {
    "extras": {
      "author": "Korolv (https://sketchfab.com/Korolv)",
      "license": "SKETCHFAB Standard (https://sketchfab.com/licenses)",
      "source": "https://sketchfab.com/3d-models/locomotive-ge-ac4400cw-566dfed7fa9941b69aa2428d75915f6f",
      "title": "Locomotive - GE AC4400CW"
    },
    "generator": "Sketchfab-16.51.0",
    "version": "2.0"
  },
  "bufferViews": [
    {
      "buffer": 0,
      "byteLength": 78888,
      "name": "floatBufferViews",
      "target": 34963
    },
    {
      "buffer": 0,
      "byteLength": 56864,
      "byteOffset": 78888,
      "byteStride": 8,
      "name": "floatBufferViews",
      "target": 34962
    },
    {
      "buffer": 0,
      "byteLength": 170592,
      "byteOffset": 135752,
      "byteStride": 12,
      "name": "floatBufferViews",
      "target": 34962
    }
  ],
  "buffers": [
    {
      "byteLength": 306344,
      "uri": "scene.bin"
    }
  ],
  "extensionsUsed": [
    "KHR_materials_specular"
  ],
  "images": [
    {
      "uri": "textures/train_baseColor.png"
    }
  ],
  "materials": [
    {
      "doubleSided": true,
      "extensions": {
        "KHR_materials_specular": {
          "specularColorFactor": [
            1.0,
            1.0,
            1.0
          ],
          "specularFactor": 1.0
        }
      },
      "name": "train",
      "pbrMetallicRoughness": {
        "baseColorTexture": {
          "index": 0
        },
        "metallicFactor": 0.5
      }
    }
  ],
  "meshes": [
    {
      "name": "train_train_0",
      "primitives": [
        {
          "attributes": {
            "NORMAL": 1,
            "POSITION": 0,
            "TEXCOORD_0": 2
          },
          "indices": 3,
          "material": 0,
          "mode": 4
        }
      ]
    },
    {
      "name": "rw_cart.001_train_0",
      "primitives": [
        {
          "attributes": {
            "NORMAL": 5,
            "POSITION": 4,
            "TEXCOORD_0": 6
          },
          "indices": 7,
          "material": 0,
          "mode": 4
        }
      ]
    },
    {
      "name": "rw_cart.002_train_0",
      "primitives": [
        {
          "attributes": {
            "NORMAL": 9,
            "POSITION": 8,
            "TEXCOORD_0": 10
          },
          "indices": 11,
          "material": 0,
          "mode": 4
        }
      ]
    }
  ],
  "nodes": [
    {
      "children": [
        1
      ],
      "matrix": [
        1.0,
        0.0,
        0.0,
        0.0,
        0.0,
        2.220446049250313e-16,
        -1.0,
        0.0,
        0.0,
        1.0,
        2.220446049250313e-16,
        0.0,
        0.0,
        0.0,
        0.0,
        1.0
      ],
      "name": "Sketchfab_model"
    },
    {
      "children": [
        2
      ],
      "matrix": [
        0.009999999776482582,
        0.0,
        0.0,
        0.0,
        0.0,
        0.0,
        0.009999999776482582,
        0.0,
        0.0,
        -0.009999999776482582,
        0.0,
        0.0,
        0.0,
        0.0,
        0.0,
        1.0
      ],
      "name": "a864cc8da3c04de98ce1f3f7808dbc48.fbx"
    },
    {
      "children": [
        3,
        5,
        7
      ],
      "name": "RootNode"
    },
    {
      "children": [
        4
      ],
      "matrix": [
        100.0,
        0.0,
        0.0,
        0.0,
        0.0,
        -1.629206793918314e-05,
        -99.99999999999868,
        0.0,
        0.0,
        99.99999999999868,
        -1.629206793918314e-05,
        0.0,
        0.0,
        0.0,
        0.0,
        1.0
      ],
      "name": "train"
    },
    {
      "mesh": 0,
      "name": "train_train_0"
    },
    {
      "children": [
        6
      ],
      "matrix": [
        100.0,
        0.0,
        0.0,
        0.0,
        0.0,
        -1.629206793918314e-05,
        -99.99999999999868,
        0.0,
        0.0,
        99.99999999999868,
        -1.629206793918314e-05,
        0.0,
        0.0,
        95.5573501586914,
        -612.4999389648438,
        1.0
      ],
      "name": "rw_cart.001"
    },
    {
      "mesh": 1,
      "name": "rw_cart.001_train_0"
    },
    {
      "children": [
        8
      ],
      "matrix": [
        -99.99999999999241,
        9.892427301959894e-13,
        3.8941437775530106e-05,
        0.0,
        3.894143777553007e-05,
        7.549789982075339e-06,
        99.99999999999213,
        0.0,
        -1.9507540278623247e-12,
        99.9999999999997,
        -7.549789970973109e-06,
        0.0,
        0.0,
        95.5573501586914,
        655.3270263671875,
        1.0
      ],
      "name": "rw_cart.002"
    },
    {
      "mesh": 2,
      "name": "rw_cart.002_train_0"
    }
  ],
  "samplers": [
    {
      "magFilter": 9729,
      "minFilter": 9987,
      "wrapS": 10497,
      "wrapT": 10497
    }
  ],
  "scene": 0,
  "scenes": [
    {
      "name": "Sketchfab_Scene",
      "nodes": [
        0
      ]
    }
  ],
  "textures": [
    {
      "sampler": 0,
      "source": 0
    }
  ]
}
